<svg xmlns="http://www.w3.org/2000/svg" version="1.0" width="3mm" height="3mm" viewBox="0 0 3 3"><path fill="none" stroke="DarkBlue" stroke-width="0.1" d="M 0,1 C 0.2 1 0.5 1.13 0.37 0.87 C 0.25 0.62 0.76 0.62 0.63 0.87 C 0.5 1.13 0.8 1 1 1 C 1.2 1 1.5 0.87 1.37 1.13 C 1.25 1.38 1.76 1.38 1.63 1.13 C 1.5 0.87 1.8 1 2 1 C 2.2 1 2.5 1.13 2.37 0.87 C 2.25 0.62 2.76 0.62 2.63 0.87 C 2.5 1.13 2.8 1 3 1 M 0,2 C 0.2 2 0.5 2.13 0.37 1.87 C 0.25 1.62 0.76 1.62 0.63 1.87 C 0.5 2.13 0.8 2 1 2 C 1.2 2 1.5 2.13 1.37 1.87 C 1.25 1.62 1.76 1.62 1.63 1.87 C 1.5 2.13 1.8 2 2 2 C 2.2 2 2.5 1.87 2.37 2.13 C 2.25 2.38 2.76 2.38 2.63 2.13 C 2.5 1.87 2.8 2 3 2 "></path><path fill="none" stroke="DarkRed" stroke-width="0.1" d="M 1,0 C 1 0.2 1.13 0.5 0.87 0.37 C 0.62 0.25 0.62 0.76 0.87 0.63 C 1.13 0.5 1 0.8 1 1 C 1 1.2 1.13 1.5 0.87 1.37 C 0.62 1.25 0.62 1.76 0.87 1.63 C 1.13 1.5 1 1.8 1 2 C 1 2.2 0.87 2.5 1.13 2.37 C 1.38 2.25 1.38 2.76 1.13 2.63 C 0.87 2.5 1 2.8 1 3 M 2,0 C 2 0.2 2.13 0.5 1.87 0.37 C 1.62 0.25 1.62 0.76 1.87 0.63 C 2.13 0.5 2 0.8 2 1 C 2 1.2 1.87 1.5 2.13 1.37 C 2.38 1.25 2.38 1.76 2.13 1.63 C 1.87 1.5 2 1.8 2 2 C 2 2.2 2.13 2.5 1.87 2.37 C 1.62 2.25 1.62 2.76 1.87 2.63 C 2.13 2.5 2 2.8 2 3 "></path><path fill="none" stroke="Black" stroke-width="0.1" d="M 0 0 L 3 0 A 0 0 0 0 1 3 0 L 3 3 A 0 0 0 0 1 3 3 L 0 3 A 0 0 0 0 1 0 3 L 0 0 A 0 0 0 0 1 0 0 "></path></svg>